<?xml version="1.0" encoding="UTF-8" standalone="no"?>
<svg
   width="20"
   height="20"
   fill="#00ffff"
   class="bi bi-download"
   viewBox="0 0 16 16"
   version="1.1"
   id="svg2"
   sodipodi:docname="download.svg"
   inkscape:version="1.4.2 (f4327f4, 2025-05-13)"
   xmlns:inkscape="http://www.inkscape.org/namespaces/inkscape"
   xmlns:sodipodi="http://sodipodi.sourceforge.net/DTD/sodipodi-0.dtd"
   xmlns="http://www.w3.org/2000/svg"
   xmlns:svg="http://www.w3.org/2000/svg">
  <defs
     id="defs2" />
  <sodipodi:namedview
     id="namedview2"
     pagecolor="#ffffff"
     bordercolor="#111111"
     borderopacity="1"
     inkscape:showpageshadow="0"
     inkscape:pageopacity="0"
     inkscape:pagecheckerboard="1"
     inkscape:deskcolor="#d1d1d1"
     inkscape:zoom="33"
     inkscape:cx="7.4848485"
     inkscape:cy="8.2575758"
     inkscape:window-width="1366"
     inkscape:window-height="697"
     inkscape:window-x="-8"
     inkscape:window-y="-8"
     inkscape:window-maximized="1"
     inkscape:current-layer="svg2" />
  <path
     d="m 1.0630671,11.164055 a 0.46784939,0.43043633 0 0 1 0.4678494,0.430436 v 2.152182 a 0.93569878,0.86087266 0 0 0 0.9356988,0.860873 H 13.695 a 0.93569878,0.86087266 0 0 0 0.935699,-0.860873 v -2.152182 a 0.4678495,0.43043643 0 0 1 0.935699,0 v 2.152182 A 1.8713976,1.7217453 0 0 1 13.695,15.468418 H 2.4666153 A 1.8713976,1.7217453 0 0 1 0.59521778,13.746673 V 11.594491 A 0.46784939,0.43043633 0 0 1 1.0630671,11.164055"
     id="path1"
     style="stroke:#00ffff;stroke-width:0.897506;stroke-opacity:1" />
  <path
     d="m 7.7495707,12.8462 a 0.46784939,0.43043633 0 0 0 0.6624747,0 L 11.219141,10.263582 A 0.46844048,0.43098014 0 0 0 10.556667,9.6540845 L 8.5486574,11.502378 V 3.9327249 a 0.4678494,0.43043634 0 0 0 -0.9356988,0 V 11.502378 L 5.6049491,9.6540845 A 0.4684404,0.43098008 0 1 0 4.9424743,10.263582 Z"
     id="path2"
     style="stroke:#00ffff;stroke-width:0.897506;stroke-opacity:1" />
</svg>
