<?xml version="1.0" encoding="UTF-8" standalone="no"?>
<svg
   width="25"
   height="25"
   fill="#00ffff"
   viewBox="0 0 2091 2091"
   version="1.1"
   id="svg1"
   sodipodi:docname="live-internet.svg"
   inkscape:version="1.4.2 (f4327f4, 2025-05-13)"
   xmlns:inkscape="http://www.inkscape.org/namespaces/inkscape"
   xmlns:sodipodi="http://sodipodi.sourceforge.net/DTD/sodipodi-0.dtd"
   xmlns="http://www.w3.org/2000/svg"
   xmlns:svg="http://www.w3.org/2000/svg">
  <defs
     id="defs1" />
  <sodipodi:namedview
     id="namedview1"
     pagecolor="#ffffff"
     bordercolor="#111111"
     borderopacity="1"
     inkscape:showpageshadow="0"
     inkscape:pageopacity="0"
     inkscape:pagecheckerboard="1"
     inkscape:deskcolor="#d1d1d1"
     inkscape:zoom="19.8"
     inkscape:cx="12.474747"
     inkscape:cy="12.5"
     inkscape:window-width="1366"
     inkscape:window-height="697"
     inkscape:window-x="-8"
     inkscape:window-y="-8"
     inkscape:window-maximized="1"
     inkscape:current-layer="svg1" />
  <path
     d="m 1506.236,1425.1221 q 0,44.1721 -5.7954,82.0339 H 547.50618 q 0,115.1631 90.6571,192.8587 90.65709,77.6955 213.18909,77.6955 81.96388,0 153.57883,-36.6786 71.615,-36.6786 113.011,-102.9368 h 350.2096 q -46.3635,125.4173 -141.1602,221.6495 -94.7967,96.232 -221.4683,148.6864 -126.67152,52.4544 -265.76182,52.4544 -154.82079,0 -294.73905,-65.4693 -188.76547,91.4993 -326.19996,91.4993 -196.216746,0 -196.216746,-207.4511 0,-90.7107 37.256339,-216.9169 14.074621,-47.3271 90.243147,-180.6322 164.75581,-283.9637 393.26138,-478.0055 -152.33704,62.3142 -353.52128,279.2309 52.15887,-216.1279 234.71495,-354.56015 182.55607,-138.43227 415.20122,-138.43227 24.83754,0 37.25632,0.78879 211.1193,-92.28819 358.4888,-92.28819 52.9868,0 96.0386,10.25425 43.0517,10.25424 78.2383,31.9459 35.1865,21.69167 55.0566,60.34228 19.87,38.6506 19.87,90.7106 0,91.49939 -62.0939,225.59329 83.6198,143.5593 83.6198,307.6273 z m -57.9543,-504.82422 q 0,-65.4694 -43.8798,-104.12 -43.8796,-38.65061 -113.4248,-38.65061 -89.4152,0 -210.2913,55.21515 100.1782,37.07303 184.212,103.7256 84.0336,66.65258 141.16,154.20808 42.2239,-106.48641 42.2239,-170.37822 z M 128.57932,1896.0284 q 0,67.8357 40.15407,104.5145 40.15404,36.6786 111.35505,36.6786 95.21065,0 220.22638,-65.4694 -101.00609,-56.7927 -176.76065,-144.3482 -75.75456,-87.5554 -113.83881,-193.2531 -81.13604,161.7015 -81.13604,261.8776 z m 417.27102,-562.4057 h 602.72476 q -4.1396,-112.0079 -93.5547,-186.9427 -89.41531,-74.9349 -207.8076,-74.9349 -119.22035,0 -208.22161,74.9349 -89.00125,74.9348 -93.14085,186.9427 z"
     id="path1"
     style="stroke-width:0.808117" />
</svg>
